# Blender v3.0.1 OBJ File: 'Portal.blend'
# www.blender.org
mtllib Portal.mtl
o Torus
v 0.000000 -0.500000 0.000000
v 0.645313 -0.413308 0.000000
v 0.433013 0.250000 0.000000
v 0.000000 0.287700 0.000000
v -0.433013 0.250000 0.000000
v -0.612651 -0.413308 0.000000
v 0.000000 -0.165063 -2.283515
v 0.645313 -0.111865 -1.561365
v 0.433013 0.484456 -0.875000
v 0.000000 0.488662 -0.750000
v -0.433013 0.484456 -0.875000
v -0.612651 -0.111865 -1.561365
v 0.000000 0.456046 -2.391257
v 0.433013 0.581046 -1.948557
v 0.433013 0.831046 -1.515545
v 0.000000 0.956046 -1.299038
v -0.433013 0.831046 -1.515545
v -0.433013 0.581046 -1.948557
v 0.000000 2.000000 -2.500000
v 0.433013 2.000000 -2.250000
v 0.433013 2.000000 -1.750000
v 0.000000 2.000000 -1.500000
v -0.433013 2.000000 -1.750000
v -0.433013 2.000000 -2.250000
v -0.000000 3.462300 -2.165064
v 0.433013 3.337300 -1.948557
v 0.433013 3.087300 -1.515545
v -0.000000 2.962300 -1.299038
v -0.433013 3.087300 -1.515545
v -0.433013 3.337300 -1.948557
v -0.000000 4.524341 -1.250001
v 0.433013 4.307835 -1.125000
v 0.433013 3.874822 -0.875000
v -0.000000 3.658315 -0.750000
v -0.433013 3.874822 -0.875000
v -0.433013 4.307835 -1.125000
v -0.000000 4.859278 -0.000000
v 0.433013 4.609278 -0.000000
v 0.433013 4.109278 -0.000000
v -0.000000 3.859277 -0.000000
v -0.433013 4.109278 -0.000000
v -0.433013 4.609278 -0.000000
v -0.000000 4.524342 1.250000
v 0.433013 4.307835 1.125000
v 0.433013 3.874822 0.875000
v -0.000000 3.658316 0.750000
v -0.433013 3.874822 0.875000
v -0.433013 4.307835 1.125000
v -0.000000 3.462300 2.165064
v 0.433013 3.337300 1.948557
v 0.433013 3.087300 1.515545
v -0.000000 2.962300 1.299038
v -0.433013 3.087300 1.515545
v -0.433013 3.337300 1.948557
v 0.000000 2.000000 2.500000
v 0.433013 2.000000 2.250000
v 0.433013 2.000000 1.750000
v 0.000000 2.000000 1.500000
v -0.433013 2.000000 1.750000
v -0.433013 2.000000 2.250000
v 0.000000 0.456046 2.391257
v 0.433013 0.581046 1.948557
v 0.433013 0.831046 1.515545
v 0.000000 0.956046 1.299038
v -0.433013 0.831046 1.515545
v -0.433013 0.581046 1.948557
v 0.000000 -0.165063 2.283515
v 0.645313 -0.111865 1.561365
v 0.433013 0.484456 0.875000
v 0.000000 0.488662 0.750000
v -0.433013 0.484456 0.875000
v -0.612651 -0.111865 1.561365
vt 0.500000 0.500000
vt 0.583333 0.500000
vt 0.583333 0.666667
vt 0.500000 0.666667
vt 0.583333 0.833333
vt 0.500000 0.833333
vt 0.583333 1.000000
vt 0.500000 1.000000
vt 0.500000 -0.000000
vt 0.583333 -0.000000
vt 0.583333 0.166667
vt 0.500000 0.166667
vt 0.583333 0.333333
vt 0.500000 0.333333
vt 0.666667 0.500000
vt 0.666667 0.666667
vt 0.666667 0.833333
vt 0.666667 1.000000
vt 0.666667 -0.000000
vt 0.666667 0.166667
vt 0.666667 0.333333
vt 0.750000 0.500000
vt 0.750000 0.666667
vt 0.750000 0.833333
vt 0.750000 1.000000
vt 0.750000 -0.000000
vt 0.750000 0.166667
vt 0.750000 0.333333
vt 0.833333 0.500000
vt 0.833333 0.666667
vt 0.833333 0.833333
vt 0.833333 1.000000
vt 0.833333 -0.000000
vt 0.833333 0.166667
vt 0.833333 0.333333
vt 0.916667 0.500000
vt 0.916667 0.666667
vt 0.916667 0.833333
vt 0.916667 1.000000
vt 0.916667 -0.000000
vt 0.916667 0.166667
vt 0.916667 0.333333
vt 1.000000 0.500000
vt 1.000000 0.666667
vt 1.000000 0.833333
vt 1.000000 1.000000
vt 1.000000 -0.000000
vt 1.000000 0.166667
vt 1.000000 0.333333
vt 0.000000 0.500000
vt 0.083333 0.500000
vt 0.083333 0.666667
vt 0.000000 0.666667
vt 0.083333 0.833333
vt 0.000000 0.833333
vt 0.083333 1.000000
vt 0.000000 1.000000
vt 0.000000 -0.000000
vt 0.083333 -0.000000
vt 0.083333 0.166667
vt 0.000000 0.166667
vt 0.083333 0.333333
vt 0.000000 0.333333
vt 0.166667 0.500000
vt 0.166667 0.666667
vt 0.166667 0.833333
vt 0.166667 1.000000
vt 0.166667 -0.000000
vt 0.166667 0.166667
vt 0.166667 0.333333
vt 0.250000 0.500000
vt 0.250000 0.666667
vt 0.250000 0.833333
vt 0.250000 1.000000
vt 0.250000 -0.000000
vt 0.250000 0.166667
vt 0.250000 0.333333
vt 0.333333 0.500000
vt 0.333333 0.666667
vt 0.333333 0.833333
vt 0.333333 1.000000
vt 0.333333 -0.000000
vt 0.333333 0.166667
vt 0.333333 0.333333
vt 0.416667 0.500000
vt 0.416667 0.666667
vt 0.416667 0.833333
vt 0.416667 1.000000
vt 0.416667 -0.000000
vt 0.416667 0.166667
vt 0.416667 0.333333
vn 0.1945 -0.9677 -0.1602
vn 0.9556 0.2877 0.0633
vn 0.0838 0.9625 0.2579
vn -0.0838 0.9625 0.2579
vn -0.9676 0.2465 0.0542
vn -0.2045 -0.9657 -0.1598
vn 0.7374 -0.1305 -0.6627
vn 0.9756 0.2187 0.0197
vn 0.3268 0.7800 0.5337
vn -0.3268 0.7800 0.5337
vn -0.9823 0.1863 0.0168
vn -0.7473 -0.1423 -0.6491
vn 0.6304 -0.1065 -0.7689
vn 1.0000 0.0000 0.0000
vn 0.4862 0.1687 0.8574
vn -0.4862 0.1687 0.8574
vn -1.0000 -0.0000 -0.0000
vn -0.6304 -0.1065 -0.7689
vn 0.4868 0.1936 -0.8518
vn 0.4865 -0.1815 0.8546
vn -0.4865 -0.1815 0.8546
vn -0.4868 0.1936 -0.8518
vn 0.4859 0.5681 -0.6642
vn 0.4848 -0.5471 0.6823
vn -0.4848 -0.5471 0.6823
vn -0.4859 0.5681 -0.6642
vn 0.4871 0.8436 -0.2260
vn 0.4871 -0.8436 0.2260
vn -0.4871 -0.8436 0.2260
vn -0.4871 0.8436 -0.2260
vn 0.4871 0.8436 0.2260
vn 0.4871 -0.8436 -0.2260
vn -0.4871 -0.8436 -0.2260
vn -0.4871 0.8436 0.2260
vn 0.4859 0.5681 0.6642
vn 0.4848 -0.5471 -0.6823
vn -0.4848 -0.5471 -0.6823
vn -0.4859 0.5681 0.6642
vn 0.4868 0.1936 0.8518
vn 0.4865 -0.1815 -0.8546
vn -0.4865 -0.1815 -0.8546
vn -0.4868 0.1936 0.8518
vn 0.6304 -0.1065 0.7689
vn 0.4862 0.1687 -0.8574
vn -0.4862 0.1687 -0.8574
vn -0.6304 -0.1065 0.7689
vn 0.7374 -0.1305 0.6627
vn 0.9756 0.2187 -0.0197
vn 0.3268 0.7800 -0.5337
vn -0.3268 0.7800 -0.5337
vn -0.9823 0.1863 -0.0168
vn -0.7473 -0.1423 0.6491
vn 0.1945 -0.9677 0.1602
vn 0.9556 0.2877 -0.0633
vn 0.0838 0.9625 -0.2579
vn -0.0838 0.9625 -0.2579
vn -0.9676 0.2465 -0.0542
vn -0.2045 -0.9657 0.1598
usemtl None
s off
f 1/1/1 7/2/1 8/3/1 2/4/1
f 2/4/2 8/3/2 9/5/2 3/6/2
f 3/6/3 9/5/3 10/7/3 4/8/3
f 4/9/4 10/10/4 11/11/4 5/12/4
f 5/12/5 11/11/5 12/13/5 6/14/5
f 6/14/6 12/13/6 7/2/6 1/1/6
f 7/2/7 13/15/7 14/16/7 8/3/7
f 8/3/8 14/16/8 15/17/8 9/5/8
f 9/5/9 15/17/9 16/18/9 10/7/9
f 10/10/10 16/19/10 17/20/10 11/11/10
f 11/11/11 17/20/11 18/21/11 12/13/11
f 12/13/12 18/21/12 13/15/12 7/2/12
f 13/15/13 19/22/13 20/23/13 14/16/13
f 14/16/14 20/23/14 21/24/14 15/17/14
f 15/17/15 21/24/15 22/25/15 16/18/15
f 16/19/16 22/26/16 23/27/16 17/20/16
f 17/20/17 23/27/17 24/28/17 18/21/17
f 18/21/18 24/28/18 19/22/18 13/15/18
f 19/22/19 25/29/19 26/30/19 20/23/19
f 20/23/14 26/30/14 27/31/14 21/24/14
f 21/24/20 27/31/20 28/32/20 22/25/20
f 22/26/21 28/33/21 29/34/21 23/27/21
f 23/27/17 29/34/17 30/35/17 24/28/17
f 24/28/22 30/35/22 25/29/22 19/22/22
f 25/29/23 31/36/23 32/37/23 26/30/23
f 26/30/14 32/37/14 33/38/14 27/31/14
f 27/31/24 33/38/24 34/39/24 28/32/24
f 28/33/25 34/40/25 35/41/25 29/34/25
f 29/34/17 35/41/17 36/42/17 30/35/17
f 30/35/26 36/42/26 31/36/26 25/29/26
f 31/36/27 37/43/27 38/44/27 32/37/27
f 32/37/14 38/44/14 39/45/14 33/38/14
f 33/38/28 39/45/28 40/46/28 34/39/28
f 34/40/29 40/47/29 41/48/29 35/41/29
f 35/41/17 41/48/17 42/49/17 36/42/17
f 36/42/30 42/49/30 37/43/30 31/36/30
f 37/50/31 43/51/31 44/52/31 38/53/31
f 38/53/14 44/52/14 45/54/14 39/55/14
f 39/55/32 45/54/32 46/56/32 40/57/32
f 40/58/33 46/59/33 47/60/33 41/61/33
f 41/61/17 47/60/17 48/62/17 42/63/17
f 42/63/34 48/62/34 43/51/34 37/50/34
f 43/51/35 49/64/35 50/65/35 44/52/35
f 44/52/14 50/65/14 51/66/14 45/54/14
f 45/54/36 51/66/36 52/67/36 46/56/36
f 46/59/37 52/68/37 53/69/37 47/60/37
f 47/60/17 53/69/17 54/70/17 48/62/17
f 48/62/38 54/70/38 49/64/38 43/51/38
f 49/64/39 55/71/39 56/72/39 50/65/39
f 50/65/14 56/72/14 57/73/14 51/66/14
f 51/66/40 57/73/40 58/74/40 52/67/40
f 52/68/41 58/75/41 59/76/41 53/69/41
f 53/69/17 59/76/17 60/77/17 54/70/17
f 54/70/42 60/77/42 55/71/42 49/64/42
f 55/71/43 61/78/43 62/79/43 56/72/43
f 56/72/14 62/79/14 63/80/14 57/73/14
f 57/73/44 63/80/44 64/81/44 58/74/44
f 58/75/45 64/82/45 65/83/45 59/76/45
f 59/76/17 65/83/17 66/84/17 60/77/17
f 60/77/46 66/84/46 61/78/46 55/71/46
f 61/78/47 67/85/47 68/86/47 62/79/47
f 62/79/48 68/86/48 69/87/48 63/80/48
f 63/80/49 69/87/49 70/88/49 64/81/49
f 64/82/50 70/89/50 71/90/50 65/83/50
f 65/83/51 71/90/51 72/91/51 66/84/51
f 66/84/52 72/91/52 67/85/52 61/78/52
f 67/85/53 1/1/53 2/4/53 68/86/53
f 68/86/54 2/4/54 3/6/54 69/87/54
f 69/87/55 3/6/55 4/8/55 70/88/55
f 70/89/56 4/9/56 5/12/56 71/90/56
f 71/90/57 5/12/57 6/14/57 72/91/57
f 72/91/58 6/14/58 1/1/58 67/85/58
