# Wavefront OBJ file
# Exported by Misfit Model 3D 1.3.7
# Sun Jul 13 19:37:39 2014

mtllib anvil.mtl

# 76 Vertices
v 1.146572 0.0 -0.000676
v 1.039855 1.7 -0.000676
v 1.059283 0.0 0.438154
v 0.96069 1.7 0.397315
v 0.810707 0.0 0.810175
v 0.693284 1.7 0.816746
v 0.438685 0.0 1.058753
v 0.397846 1.7 0.960159
v -0.000145 0.0 1.146041
v -0.000145 1.7 1.039324
v -0.438975 0.0 1.058753
v -0.398136 1.7 0.98918
v -0.810997 0.0 0.810176
v -0.735536 1.7 0.734715
v -1.059574 0.0 0.438154
v -0.96098 1.7 0.397315
v -1.146862 0.0 -0.000676
v -1.040145 1.7 -0.000676
v -1.059574 0.0 -0.439505
v -0.96098 1.7 -0.398666
v -0.810997 0.0 -0.811527
v -0.688751 1.7 -0.736067
v -0.438975 0.0 -1.060105
v -0.398136 1.7 -0.961511
v -0.000145 0.0 -1.147393
v -0.000145 1.7 -1.040676
v 0.438685 0.0 -1.060105
v 0.397846 1.7 -0.961511
v 0.810707 0.0 -0.811527
v 0.735246 1.7 -0.736067
v 1.059284 0.0 -0.439505
v 0.99331 1.7 -0.398666
v -0.589875 1.75 -0.379875
v 0.590125 1.75 -0.379875
v 0.590125 1.75 0.380125
v -0.589875 1.75 0.380125
v -0.3 1.8 -0.23
v 0.3 1.8 -0.23
v 0.3 1.8 0.23
v -0.3 1.8 0.23
v 0.600125 1.7 -0.399875
v 0.600125 1.7 0.400125
v -0.599875 1.7 -0.399875
v -0.599875 1.7 0.400125
v -0.3 1.7 -0.25
v -0.3 1.7 0.25
v 0.3 1.7 -0.25
v 0.3 1.7 0.25
v -0.24 2.1 -0.15
v 0.24 2.1 -0.15
v 0.24 2.1 0.15
v -0.24 2.1 0.15
v -0.21 1.95 -0.126
v -0.21 1.95 0.126
v 0.21 1.95 0.126
v 0.21 1.95 -0.126
v -0.4 2.3 -0.23
v 0.4 2.3 -0.23
v 0.4 2.3 0.23
v -0.4 2.3 0.23
v -0.4 2.7 -0.26
v 0.4 2.7 -0.26
v 0.4 2.7 0.26
v -0.4 2.7 0.26
v 0.9 2.6 -0.15
v 0.9 2.6 0.15
v 0.9 2.7 -0.15
v 0.9 2.7 0.15
v -0.5 2.35 0.0
v -0.4 2.65 -0.26
v -0.4 2.65 0.26
v -0.5 2.475 -0.2
v -0.5 2.65 -0.2
v -0.5 2.65 0.2
v -0.5 2.475 0.2
v -1.1 2.65 0.0

# 372 Texture Coordinates
vt 0.75 0.0
vt 0.75 0.398438
vt 0.6875 0.398438
vt 0.75 0.0
vt 0.6875 0.398438
vt 0.6875 0.0
vt 0.6875 0.0
vt 0.6875 0.398438
vt 0.625 0.398438
vt 0.6875 0.0
vt 0.625 0.398438
vt 0.625 0.0
vt 0.625 0.0
vt 0.625 0.398438
vt 0.5625 0.398438
vt 0.625 0.0
vt 0.5625 0.398438
vt 0.5625 0.0
vt 0.5625 0.0
vt 0.5625 0.398438
vt 0.5 0.398438
vt 0.5625 0.0
vt 0.5 0.398438
vt 0.5 0.0
vt 0.5 0.0
vt 0.5 0.398438
vt 0.4375 0.398438
vt 0.5 0.0
vt 0.4375 0.398438
vt 0.4375 0.0
vt 0.4375 0.0
vt 0.4375 0.398438
vt 0.375 0.398438
vt 0.4375 0.0
vt 0.375 0.398438
vt 0.375 0.0
vt 0.375 0.0
vt 0.375 0.398438
vt 0.3125 0.398438
vt 0.375 0.0
vt 0.3125 0.398438
vt 0.3125 0.0
vt 0.3125 0.0
vt 0.3125 0.398438
vt 0.25 0.398438
vt 0.3125 0.0
vt 0.25 0.398438
vt 0.25 0.0
vt 0.25 0.0
vt 0.25 0.398438
vt 0.1875 0.398438
vt 0.25 0.0
vt 0.1875 0.398438
vt 0.1875 0.0
vt 0.1875 0.0
vt 0.1875 0.398438
vt 0.125 0.398438
vt 0.1875 0.0
vt 0.125 0.398438
vt 0.125 0.0
vt 0.125 0.0
vt 0.125 0.398438
vt 0.0625 0.398438
vt 0.125 0.0
vt 0.0625 0.398438
vt 0.0625 0.0
vt 0.0625 0.0
vt 0.0625 0.398438
vt 0.0 0.398438
vt 0.0625 0.0
vt 0.0 0.398438
vt 0.0 0.0
vt 1.0 0.0
vt 1.0 0.398438
vt 0.9375 0.398438
vt 1.0 0.0
vt 0.9375 0.398438
vt 0.9375 0.0
vt 0.9375 0.0
vt 0.9375 0.398438
vt 0.875 0.398438
vt 0.9375 0.0
vt 0.875 0.398438
vt 0.875 0.0
vt 0.364588 0.487441
vt 0.429201 0.552054
vt 0.464169 0.636475
vt 0.364588 0.487441
vt 0.464169 0.636475
vt 0.464169 0.727851
vt 0.364588 0.487441
vt 0.464169 0.727851
vt 0.429201 0.812271
vt 0.364588 0.487441
vt 0.429201 0.812271
vt 0.364588 0.876884
vt 0.364588 0.487441
vt 0.364588 0.876884
vt 0.280167 0.911853
vt 0.364588 0.487441
vt 0.280167 0.911853
vt 0.188791 0.911852
vt 0.364588 0.487441
vt 0.188791 0.911852
vt 0.10437 0.876884
vt 0.364588 0.487441
vt 0.10437 0.876884
vt 0.039757 0.812271
vt 0.364588 0.487441
vt 0.039757 0.812271
vt 0.004789 0.727851
vt 0.364588 0.487441
vt 0.004789 0.727851
vt 0.004789 0.636475
vt 0.364588 0.487441
vt 0.004789 0.636475
vt 0.039757 0.552054
vt 0.364588 0.487441
vt 0.039757 0.552054
vt 0.10437 0.487441
vt 0.364588 0.487441
vt 0.10437 0.487441
vt 0.188791 0.452473
vt 0.364588 0.487441
vt 0.188791 0.452473
vt 0.280167 0.452473
vt 0.8125 0.0
vt 0.8125 0.398438
vt 0.75 0.398438
vt 0.8125 0.0
vt 0.75 0.398438
vt 0.75 0.0
vt 0.875 0.0
vt 0.875 0.398438
vt 0.8125 0.398438
vt 0.875 0.0
vt 0.8125 0.398438
vt 0.8125 0.0
vt 0.834985 0.428789
vt 0.834985 0.455068
vt 0.917681 0.43486
vt 0.834985 0.428789
vt 0.917681 0.43486
vt 0.921094 0.421165
vt 0.680368 0.455068
vt 0.680368 0.428789
vt 0.594315 0.421165
vt 0.680368 0.455068
vt 0.594315 0.421165
vt 0.597729 0.43486
vt 0.477736 0.685303
vt 0.490778 0.690418
vt 0.490778 0.884793
vt 0.477736 0.685303
vt 0.490778 0.884793
vt 0.477736 0.889909
vt 0.608774 0.822702
vt 0.608773 0.758107
vt 0.647984 0.751954
vt 0.608774 0.822702
vt 0.647984 0.751954
vt 0.647986 0.828853
vt 0.566073 0.72875
vt 0.566073 0.846398
vt 0.490778 0.884793
vt 0.566073 0.72875
vt 0.490778 0.884793
vt 0.490778 0.690418
vt 0.680368 0.455068
vt 0.834985 0.455068
vt 0.834985 0.428789
vt 0.680368 0.455068
vt 0.834985 0.428789
vt 0.680368 0.428789
vt 0.844725 0.45505
vt 0.691292 0.452659
vt 0.691699 0.42658
vt 0.844725 0.45505
vt 0.691699 0.42658
vt 0.845131 0.428971
vt 0.488537 0.887776
vt 0.475467 0.892902
vt 0.475467 0.687843
vt 0.488537 0.887776
vt 0.475467 0.687843
vt 0.488537 0.69297
vt 0.844725 0.45505
vt 0.845131 0.428971
vt 0.930728 0.422723
vt 0.844725 0.45505
vt 0.930728 0.422723
vt 0.927128 0.436261
vt 0.563936 0.73145
vt 0.563936 0.849359
vt 0.488537 0.887776
vt 0.563936 0.73145
vt 0.488537 0.887776
vt 0.488537 0.69297
vt 0.691699 0.42658
vt 0.691292 0.452659
vt 0.609572 0.431313
vt 0.691699 0.42658
vt 0.609572 0.431313
vt 0.606396 0.41767
vt 0.647986 0.828853
vt 0.647984 0.751954
vt 0.713636 0.731444
vt 0.647986 0.828853
vt 0.713636 0.731444
vt 0.713641 0.849358
vt 0.71358 0.499694
vt 0.820983 0.501367
vt 0.82805 0.540333
vt 0.71358 0.499694
vt 0.82805 0.540333
vt 0.705303 0.538421
vt 0.610812 0.819799
vt 0.610813 0.755349
vt 0.649936 0.749212
vt 0.610812 0.819799
vt 0.649936 0.749212
vt 0.649935 0.825937
vt 0.811793 0.502104
vt 0.70356 0.502105
vt 0.695829 0.541251
vt 0.811793 0.502104
vt 0.695829 0.541251
vt 0.819524 0.54125
vt 0.563936 0.849359
vt 0.563936 0.73145
vt 0.608773 0.758107
vt 0.563936 0.849359
vt 0.608773 0.758107
vt 0.608774 0.822702
vt 0.691292 0.452659
vt 0.844725 0.45505
vt 0.820983 0.501367
vt 0.691292 0.452659
vt 0.820983 0.501367
vt 0.71358 0.499694
vt 0.566073 0.846398
vt 0.566073 0.72875
vt 0.610813 0.755349
vt 0.566073 0.846398
vt 0.610813 0.755349
vt 0.610812 0.819799
vt 0.834985 0.455068
vt 0.680368 0.455068
vt 0.70356 0.502105
vt 0.834985 0.455068
vt 0.70356 0.502105
vt 0.811793 0.502104
vt 0.705303 0.538421
vt 0.82805 0.540333
vt 0.868107 0.596054
vt 0.705303 0.538421
vt 0.868107 0.596054
vt 0.66353 0.592868
vt 0.649935 0.825937
vt 0.649936 0.749212
vt 0.71544 0.728753
vt 0.649935 0.825937
vt 0.71544 0.728753
vt 0.715438 0.846398
vt 0.819524 0.54125
vt 0.695829 0.541251
vt 0.654598 0.59676
vt 0.819524 0.54125
vt 0.654598 0.59676
vt 0.860756 0.59676
vt 0.634067 0.857506
vt 0.838669 0.857506
vt 0.838669 0.990497
vt 0.634067 0.857506
vt 0.838669 0.990497
vt 0.634066 0.990497
vt 0.653018 0.679063
vt 0.654598 0.59676
vt 0.628149 0.636518
vt 0.653018 0.679063
vt 0.628149 0.636518
vt 0.625737 0.677456
vt 0.860756 0.59676
vt 0.860756 0.700128
vt 0.99267 0.698077
vt 0.860756 0.59676
vt 0.99267 0.698077
vt 0.99227 0.67231
vt 0.864565 0.82594
vt 0.864566 0.749216
vt 0.890141 0.749216
vt 0.864565 0.82594
vt 0.890141 0.749216
vt 0.890139 0.825941
vt 0.866512 0.69863
vt 0.868107 0.596054
vt 0.997447 0.673056
vt 0.866512 0.69863
vt 0.997447 0.673056
vt 0.997447 0.698631
vt 0.838669 0.990497
vt 0.838669 0.857506
vt 0.966545 0.885639
vt 0.838669 0.990497
vt 0.966545 0.885639
vt 0.966545 0.962365
vt 0.715438 0.846398
vt 0.71544 0.728753
vt 0.864566 0.749216
vt 0.715438 0.846398
vt 0.864566 0.749216
vt 0.864565 0.82594
vt 0.595703 0.975152
vt 0.595704 0.872851
vt 0.621279 0.857506
vt 0.595703 0.975152
vt 0.621279 0.857506
vt 0.621279 0.990497
vt 0.634067 0.857506
vt 0.634066 0.990497
vt 0.621279 0.990497
vt 0.634067 0.857506
vt 0.621279 0.990497
vt 0.621279 0.857506
vt 0.860756 0.59676
vt 0.654598 0.59676
vt 0.653018 0.679063
vt 0.860756 0.59676
vt 0.653018 0.679063
vt 0.654598 0.700129
vt 0.860756 0.59676
vt 0.654598 0.700129
vt 0.860756 0.700128
vt 0.66353 0.592868
vt 0.868107 0.596054
vt 0.866512 0.69863
vt 0.66353 0.592868
vt 0.866512 0.69863
vt 0.661934 0.695485
vt 0.66353 0.592868
vt 0.661934 0.695485
vt 0.662131 0.682699
vt 0.63235 0.681053
vt 0.63482 0.636364
vt 0.66353 0.592868
vt 0.63235 0.681053
vt 0.66353 0.592868
vt 0.662131 0.682699
vt 0.625737 0.677456
vt 0.628149 0.636518
vt 0.477788 0.66874
vt 0.595704 0.872851
vt 0.595703 0.975152
vt 0.442251 0.924001
vt 0.63482 0.636364
vt 0.63235 0.681053
vt 0.470844 0.672126
vt 0.713636 0.731444
vt 0.762748 0.73257
vt 0.743291 0.790399
vt 0.762753 0.848228
vt 0.743291 0.790399
vt 0.915679 0.790391
vt 0.743291 0.790399
vt 0.762748 0.73257
vt 0.915679 0.790391
vt 0.743291 0.790399
vt 0.762753 0.848228
vt 0.713641 0.849358
vt 0.713641 0.849358
vt 0.713636 0.731444
vt 0.743291 0.790399

# 372 Vertex Normals
vn 0.995857 0.062515 0.06603
vn 0.929572 0.366821 -0.036568
vn 0.193229 0.97907 0.063916
vn 0.995857 0.062515 0.06603
vn 0.193229 0.97907 0.063916
vn 0.898064 0.060425 0.435695
vn 0.898064 0.060425 0.435695
vn 0.193229 0.97907 0.063916
vn 0.676417 0.366892 0.638632
vn 0.898064 0.060425 0.435695
vn 0.676417 0.366892 0.638632
vn 0.622721 0.049007 0.780908
vn 0.622721 0.049007 0.780908
vn 0.676417 0.366892 0.638632
vn 0.324407 0.588084 0.740889
vn 0.622721 0.049007 0.780908
vn 0.324407 0.588084 0.740889
vn 0.320095 0.062515 0.945321
vn 0.320095 0.062515 0.945321
vn 0.324407 0.588084 0.740889
vn 0.071941 0.593911 0.801308
vn 0.320095 0.062515 0.945321
vn 0.071941 0.593911 0.801308
vn -0.042259 0.056959 0.997482
vn -0.042259 0.056959 0.997482
vn 0.071941 0.593911 0.801308
vn -0.254037 0.594057 0.763257
vn -0.042259 0.056959 0.997482
vn -0.254037 0.594057 0.763257
vn -0.459424 0.052143 0.886685
vn -0.459424 0.052143 0.886685
vn -0.254037 0.594057 0.763257
vn -0.542232 0.5925 0.595758
vn -0.459424 0.052143 0.886685
vn -0.542232 0.5925 0.595758
vn -0.750867 0.062515 0.657488
vn -0.750867 0.062515 0.657488
vn -0.542232 0.5925 0.595758
vn -0.71993 0.595963 0.355708
vn -0.750867 0.062515 0.657488
vn -0.71993 0.595963 0.355708
vn -0.945321 0.062515 0.320094
vn -0.945321 0.062515 0.320094
vn -0.71993 0.595963 0.355708
vn -0.801253 0.595963 0.053126
vn -0.945321 0.062515 0.320094
vn -0.801253 0.595963 0.053126
vn -0.995857 0.062515 -0.06603
vn -0.995857 0.062515 -0.06603
vn -0.801253 0.595963 0.053126
vn -0.750521 0.599111 -0.278899
vn -0.995857 0.062515 -0.06603
vn -0.750521 0.599111 -0.278899
vn -0.880632 0.0701 -0.468587
vn -0.880632 0.0701 -0.468587
vn -0.750521 0.599111 -0.278899
vn -0.598195 0.600019 -0.531169
vn -0.880632 0.0701 -0.468587
vn -0.598195 0.600019 -0.531169
vn -0.674479 0.075937 -0.734378
vn -0.674479 0.075937 -0.734378
vn -0.598195 0.600019 -0.531169
vn -0.371044 0.60059 -0.70825
vn -0.674479 0.075937 -0.734378
vn -0.371044 0.60059 -0.70825
vn -0.320095 0.062515 -0.945321
vn -0.320095 0.062515 -0.945321
vn -0.371044 0.60059 -0.70825
vn -0.053126 0.595963 -0.801253
vn -0.320095 0.062515 -0.945321
vn -0.053126 0.595963 -0.801253
vn 0.066029 0.062515 -0.995857
vn 0.066029 0.062515 -0.995857
vn -0.053126 0.595963 -0.801253
vn 0.257543 0.595963 -0.760591
vn 0.066029 0.062515 -0.995857
vn 0.257543 0.595963 -0.760591
vn 0.442102 0.062515 -0.894784
vn 0.442102 0.062515 -0.894784
vn 0.257543 0.595963 -0.760591
vn 0.517098 0.5941 -0.616161
vn 0.442102 0.062515 -0.894784
vn 0.517098 0.5941 -0.616161
vn 0.736815 0.057217 -0.673669
vn 0.193229 0.97907 0.063916
vn 0.929572 0.366821 -0.036568
vn 0.722926 0.593919 -0.353041
vn 0.193229 0.97907 0.063916
vn 0.722926 0.593919 -0.353041
vn 0.517098 0.5941 -0.616161
vn 0.193229 0.97907 0.063916
vn 0.517098 0.5941 -0.616161
vn 0.257543 0.595963 -0.760591
vn 0.193229 0.97907 0.063916
vn 0.257543 0.595963 -0.760591
vn -0.053126 0.595963 -0.801253
vn 0.193229 0.97907 0.063916
vn -0.053126 0.595963 -0.801253
vn -0.371044 0.60059 -0.70825
vn 0.193229 0.97907 0.063916
vn -0.371044 0.60059 -0.70825
vn -0.598195 0.600019 -0.531169
vn 0.193229 0.97907 0.063916
vn -0.598195 0.600019 -0.531169
vn -0.750521 0.599111 -0.278899
vn 0.193229 0.97907 0.063916
vn -0.750521 0.599111 -0.278899
vn -0.801253 0.595963 0.053126
vn 0.193229 0.97907 0.063916
vn -0.801253 0.595963 0.053126
vn -0.71993 0.595963 0.355708
vn 0.193229 0.97907 0.063916
vn -0.71993 0.595963 0.355708
vn -0.542232 0.5925 0.595758
vn 0.193229 0.97907 0.063916
vn -0.542232 0.5925 0.595758
vn -0.254037 0.594057 0.763257
vn 0.193229 0.97907 0.063916
vn -0.254037 0.594057 0.763257
vn 0.071941 0.593911 0.801308
vn 0.193229 0.97907 0.063916
vn 0.071941 0.593911 0.801308
vn 0.324407 0.588084 0.740889
vn 0.193229 0.97907 0.063916
vn 0.324407 0.588084 0.740889
vn 0.676417 0.366892 0.638632
vn 0.95421 0.050511 -0.294844
vn 0.722926 0.593919 -0.353041
vn 0.929572 0.366821 -0.036568
vn 0.95421 0.050511 -0.294844
vn 0.929572 0.366821 -0.036568
vn 0.995857 0.062515 0.06603
vn 0.736815 0.057217 -0.673669
vn 0.517098 0.5941 -0.616161
vn 0.722926 0.593919 -0.353041
vn 0.736815 0.057217 -0.673669
vn 0.722926 0.593919 -0.353041
vn 0.95421 0.050511 -0.294844
vn -0.220289 0.212586 -0.951987
vn -0.017735 0.704285 -0.709695
vn -0.292181 0.603017 -0.742294
vn -0.220289 0.212586 -0.951987
vn -0.292181 0.603017 -0.742294
vn -0.431484 0.259322 -0.864045
vn 0.130586 0.462355 -0.877026
vn 0.225876 0.191048 -0.955239
vn 0.423298 0.222536 -0.878235
vn 0.130586 0.462355 -0.877026
vn 0.423298 0.222536 -0.878235
vn 0.027251 0.931243 -0.363379
vn 0.980581 0.196116 0.0
vn 0.697592 0.716495 0.0
vn 0.697592 0.716495 0.0
vn 0.980581 0.196116 0.0
vn 0.697592 0.716495 0.0
vn 0.980581 0.196117 0.0
vn -0.943696 -0.011962 -0.330599
vn -0.797191 0.152867 0.584054
vn -0.624369 -0.436666 0.647677
vn -0.943696 -0.011962 -0.330599
vn -0.624369 -0.436666 0.647677
vn -0.576579 -0.483721 -0.65846
vn 0.143177 0.74371 -0.65299
vn 0.179805 0.592224 0.785456
vn 0.564251 0.783547 0.260144
vn 0.143177 0.74371 -0.65299
vn 0.564251 0.783547 0.260144
vn 0.121386 0.673786 -0.728889
vn -0.17993 0.592202 -0.785444
vn 0.143177 0.74371 -0.65299
vn -0.220289 0.212586 -0.951987
vn -0.17993 0.592202 -0.785444
vn -0.220289 0.212586 -0.951987
vn 0.225876 0.191048 -0.955239
vn 0.179805 0.592224 0.785456
vn -0.14307 0.74375 0.652968
vn 0.220782 0.212505 0.951891
vn 0.179805 0.592224 0.785456
vn 0.220782 0.212505 0.951891
vn -0.226037 0.191041 0.955202
vn -0.697644 0.716444 0.0
vn -0.980581 0.196116 0.0
vn -0.980581 0.196116 0.0
vn -0.697644 0.716444 0.0
vn -0.980581 0.196116 0.0
vn -0.697644 0.716444 0.0
vn -0.130744 0.462348 0.877006
vn -0.226037 0.191041 0.955202
vn -0.423624 0.22246 0.878097
vn -0.130744 0.462348 0.877006
vn -0.423624 0.22246 0.878097
vn -0.027519 0.93125 0.36334
vn -0.14307 0.74375 0.652968
vn -0.17993 0.592202 -0.785444
vn -0.564366 0.783463 -0.260148
vn -0.14307 0.74375 0.652968
vn -0.564366 0.783463 -0.260148
vn -0.120739 0.673905 0.728886
vn 0.220782 0.212505 0.951891
vn 0.017866 0.704314 0.709664
vn 0.292939 0.602924 0.742072
vn 0.220782 0.212505 0.951891
vn 0.292939 0.602924 0.742072
vn 0.432385 0.259 0.863691
vn -0.576579 -0.483721 -0.65846
vn -0.624369 -0.436666 0.647677
vn -0.525295 -0.455805 0.718545
vn -0.576579 -0.483721 -0.65846
vn -0.525295 -0.455805 0.718545
vn -0.449453 -0.51705 -0.728458
vn -0.330812 0.01946 0.943496
vn 0.588224 0.176763 0.789144
vn 0.576579 -0.483721 0.65846
vn -0.330812 0.01946 0.943496
vn 0.576579 -0.483721 0.65846
vn -0.624369 -0.436666 0.647677
vn 0.943696 -0.011962 0.330599
vn 0.797191 0.152867 -0.584054
vn 0.624369 -0.436666 -0.647677
vn 0.943696 -0.011962 0.330599
vn 0.624369 -0.436666 -0.647677
vn 0.576579 -0.483721 0.65846
vn 0.330812 0.01946 -0.943496
vn -0.588224 0.176763 -0.789144
vn -0.576579 -0.483721 -0.65846
vn 0.330812 0.01946 -0.943496
vn -0.576579 -0.483721 -0.65846
vn 0.624369 -0.436666 -0.647677
vn -0.419844 0.662954 -0.619857
vn -0.250117 0.798124 0.548124
vn -0.856324 0.445593 0.261068
vn -0.419844 0.662954 -0.619857
vn -0.856324 0.445593 0.261068
vn -0.805711 0.360691 -0.469821
vn -0.14307 0.74375 0.652968
vn 0.179805 0.592224 0.785456
vn 0.272586 0.47558 0.836373
vn -0.14307 0.74375 0.652968
vn 0.272586 0.47558 0.836373
vn -0.486864 0.364168 0.793943
vn 0.419816 0.662966 0.619863
vn 0.250059 0.79814 -0.548128
vn 0.856324 0.445593 -0.261068
vn 0.419816 0.662966 0.619863
vn 0.856324 0.445593 -0.261068
vn 0.805711 0.360691 0.469821
vn 0.143177 0.74371 -0.65299
vn -0.17993 0.592202 -0.785444
vn -0.272586 0.47558 -0.836373
vn 0.143177 0.74371 -0.65299
vn -0.272586 0.47558 -0.836373
vn 0.486864 0.364168 -0.793943
vn -0.624369 -0.436666 0.647677
vn 0.576579 -0.483721 0.65846
vn 0.372283 -0.5983 0.709536
vn -0.624369 -0.436666 0.647677
vn 0.372283 -0.5983 0.709536
vn -0.525295 -0.455805 0.718545
vn 0.576579 -0.483721 0.65846
vn 0.624369 -0.436666 -0.647677
vn 0.3583 -0.390805 -0.847875
vn 0.576579 -0.483721 0.65846
vn 0.3583 -0.390805 -0.847875
vn 0.372283 -0.5983 0.709536
vn 0.624369 -0.436666 -0.647677
vn -0.576579 -0.483721 -0.65846
vn -0.449453 -0.51705 -0.728458
vn 0.624369 -0.436666 -0.647677
vn -0.449453 -0.51705 -0.728458
vn 0.3583 -0.390805 -0.847875
vn 0.0 1.0 0.0
vn 0.0 1.0 0.0
vn 0.0 1.0 0.0
vn 0.0 1.0 0.0
vn 0.0 1.0 0.0
vn 0.0 1.0 0.0
vn -0.608299 -0.034424 -0.792961
vn -0.449453 -0.51705 -0.728458
vn -0.556042 -0.290851 -0.778603
vn -0.608299 -0.034424 -0.792961
vn -0.556042 -0.290851 -0.778603
vn -0.417857 0.0 -0.908513
vn 0.3583 -0.390805 -0.847875
vn 0.107772 -0.074354 -0.991391
vn 0.770463 -0.023726 -0.637043
vn 0.3583 -0.390805 -0.847875
vn 0.770463 -0.023726 -0.637043
vn 0.741494 -0.581465 -0.334791
vn 0.804354 -0.255549 0.536386
vn 0.741494 -0.581465 -0.334791
vn 0.770463 -0.023726 -0.637043
vn 0.804354 -0.255549 0.536386
vn 0.770463 -0.023726 -0.637043
vn 0.779378 0.0 0.626553
vn 0.104411 -0.056049 0.992954
vn 0.372283 -0.5983 0.709536
vn 0.804354 -0.255549 0.536386
vn 0.104411 -0.056049 0.992954
vn 0.804354 -0.255549 0.536386
vn 0.779378 0.0 0.626553
vn 0.0 1.0 0.0
vn 0.0 1.0 0.0
vn 0.0 1.0 0.0
vn 0.0 1.0 0.0
vn 0.0 1.0 0.0
vn 0.0 1.0 0.0
vn 0.372283 -0.5983 0.709536
vn 0.3583 -0.390805 -0.847875
vn 0.741494 -0.581465 -0.334791
vn 0.372283 -0.5983 0.709536
vn 0.741494 -0.581465 -0.334791
vn 0.804354 -0.255549 0.536386
vn -0.0 1.0 0.0
vn -0.000001 1.0 0.0
vn -0.0 1.0 0.0
vn -0.0 1.0 0.0
vn -0.0 1.0 0.0
vn 0.000002 1.0 0.0
vn -1.0 0.0 0.0
vn -1.0 0.0 0.0
vn -0.855655 -0.022807 -0.517044
vn -1.0 0.0 0.0
vn -0.855655 -0.022807 -0.517044
vn -0.869802 -0.042137 0.491598
vn 0.3583 -0.390805 -0.847875
vn -0.449453 -0.51705 -0.728458
vn -0.229054 -0.042218 -0.972498
vn 0.3583 -0.390805 -0.847875
vn -0.229054 -0.042218 -0.972498
vn 0.018753 -0.037428 -0.999123
vn 0.3583 -0.390805 -0.847875
vn 0.018753 -0.037428 -0.999123
vn 0.107772 -0.074354 -0.991391
vn -0.525295 -0.455805 0.718545
vn 0.372283 -0.5983 0.709536
vn 0.104411 -0.056049 0.992954
vn -0.525295 -0.455805 0.718545
vn 0.104411 -0.056049 0.992954
vn 0.0 -0.07479 0.997199
vn 1.0 0.0 0.0
vn 1.0 0.0 0.0
vn 1.0 0.0 0.0
vn -0.37475 -0.024599 0.926799
vn -0.532696 -0.352106 0.769582
vn -0.525295 -0.455805 0.718545
vn -0.37475 -0.024599 0.926799
vn -0.525295 -0.455805 0.718545
vn -0.869802 -0.042137 0.491598
vn -0.417857 0.0 -0.908513
vn -0.556042 -0.290851 -0.778603
vn -0.39669 -0.438309 -0.806549
vn -0.000001 1.0 0.0
vn -0.0 1.0 0.0
vn 0.0 1.0 0.0
vn -0.532696 -0.352106 0.769582
vn -0.37475 -0.024599 0.926799
vn -0.39669 -0.438309 0.806549
vn -0.525295 -0.455805 0.718545
vn -0.532696 -0.352106 0.769582
vn -0.660532 -0.750798 0.0
vn -0.556042 -0.290851 -0.778603
vn -0.660532 -0.750798 0.0
vn -0.514744 -0.732708 -0.445171
vn -0.660532 -0.750798 0.0
vn -0.532696 -0.352106 0.769582
vn -0.514744 -0.732708 0.445171
vn -0.660532 -0.750798 0.0
vn -0.556042 -0.290851 -0.778603
vn -0.449453 -0.51705 -0.728458
vn -0.449453 -0.51705 -0.728458
vn -0.525295 -0.455805 0.718545
vn -0.660532 -0.750798 0.0

# skin, 124 grouped triangles

usemtl skin
o skin
g skin

f 1/1/1 2/2/2 4/3/3
f 1/4/4 4/5/5 3/6/6
f 3/7/7 4/8/8 6/9/9
f 3/10/10 6/11/11 5/12/12
f 5/13/13 6/14/14 8/15/15
f 5/16/16 8/17/17 7/18/18
f 7/19/19 8/20/20 10/21/21
f 7/22/22 10/23/23 9/24/24
f 9/25/25 10/26/26 12/27/27
f 9/28/28 12/29/29 11/30/30
f 11/31/31 12/32/32 14/33/33
f 11/34/34 14/35/35 13/36/36
f 13/37/37 14/38/38 16/39/39
f 13/40/40 16/41/41 15/42/42
f 15/43/43 16/44/44 18/45/45
f 15/46/46 18/47/47 17/48/48
f 17/49/49 18/50/50 20/51/51
f 17/52/52 20/53/53 19/54/54
f 19/55/55 20/56/56 22/57/57
f 19/58/58 22/59/59 21/60/60
f 21/61/61 22/62/62 24/63/63
f 21/64/64 24/65/65 23/66/66
f 23/67/67 24/68/68 26/69/69
f 23/70/70 26/71/71 25/72/72
f 25/73/73 26/74/74 28/75/75
f 25/76/76 28/77/77 27/78/78
f 27/79/79 28/80/80 30/81/81
f 27/82/82 30/83/83 29/84/84
f 4/85/85 2/86/86 32/87/87
f 4/88/88 32/89/89 30/90/90
f 4/91/91 30/92/92 28/93/93
f 4/94/94 28/95/95 26/96/96
f 4/97/97 26/98/98 24/99/99
f 4/100/100 24/101/101 22/102/102
f 4/103/103 22/104/104 20/105/105
f 4/106/106 20/107/107 18/108/108
f 4/109/109 18/110/110 16/111/111
f 4/112/112 16/113/113 14/114/114
f 4/115/115 14/116/116 12/117/117
f 4/118/118 12/119/119 10/120/120
f 4/121/121 10/122/122 8/123/123
f 4/124/124 8/125/125 6/126/126
f 31/127/127 32/128/128 2/129/129
f 31/130/130 2/131/131 1/132/132
f 29/133/133 30/134/134 32/135/135
f 29/136/136 32/137/137 31/138/138
f 47/139/139 38/140/140 34/141/141
f 47/142/142 34/143/143 41/144/144
f 37/145/145 45/146/146 43/147/147
f 37/148/148 43/149/149 33/150/150
f 41/151/151 34/152/152 35/153/153
f 41/154/154 35/155/155 42/156/156
f 53/157/157 54/158/158 52/159/159
f 53/160/160 52/161/161 49/162/162
f 38/163/163 39/164/164 35/165/165
f 38/166/166 35/167/167 34/168/168
f 37/169/169 38/170/170 47/171/171
f 37/172/172 47/173/173 45/174/174
f 39/175/175 40/176/176 46/177/177
f 39/178/178 46/179/179 48/180/180
f 33/181/181 43/182/182 44/183/183
f 33/184/184 44/185/185 36/186/186
f 39/187/187 48/188/188 42/189/189
f 39/190/190 42/191/191 35/192/192
f 40/193/193 37/194/194 33/195/195
f 40/196/196 33/197/197 36/198/198
f 46/199/199 40/200/200 36/201/201
f 46/202/202 36/203/203 44/204/204
f 49/205/205 52/206/206 60/207/207
f 49/208/208 60/209/209 57/210/210
f 54/211/211 55/212/212 51/213/213
f 54/214/214 51/215/215 52/216/216
f 55/217/217 56/218/218 50/219/219
f 55/220/220 50/221/221 51/222/222
f 56/223/223 53/224/224 49/225/225
f 56/226/226 49/227/227 50/228/228
f 37/229/229 40/230/230 54/231/231
f 37/232/232 54/233/233 53/234/234
f 40/235/235 39/236/236 55/237/237
f 40/238/238 55/239/239 54/240/240
f 39/241/241 38/242/242 56/243/243
f 39/244/244 56/245/245 55/246/246
f 38/247/247 37/248/248 53/249/249
f 38/250/250 53/251/251 56/252/252
f 52/253/253 51/254/254 59/255/255
f 52/256/256 59/257/257 60/258/258
f 51/259/259 50/260/260 58/261/261
f 51/262/262 58/263/263 59/264/264
f 50/265/265 49/266/266 57/267/267
f 50/268/268 57/269/269 58/270/270
f 64/271/271 63/272/272 62/273/273
f 64/274/274 62/275/275 61/276/276
f 70/277/277 57/278/278 72/279/279
f 70/280/280 72/281/281 73/282/282
f 58/283/283 62/284/284 67/285/285
f 58/286/286 67/287/287 65/288/288
f 66/289/289 65/290/290 67/291/291
f 66/292/292 67/293/293 68/294/294
f 63/295/295 59/296/296 66/297/297
f 63/298/298 66/299/299 68/300/300
f 62/301/301 63/302/302 68/303/303
f 62/304/304 68/305/305 67/306/306
f 59/307/307 58/308/308 65/309/309
f 59/310/310 65/311/311 66/312/312
f 73/313/313 74/314/314 71/315/315
f 73/316/316 71/317/317 70/318/318
f 64/319/319 61/320/320 70/321/321
f 64/322/322 70/323/323 71/324/324
f 58/325/325 57/326/326 70/327/327
f 58/328/328 70/329/329 61/330/330
f 58/331/331 61/332/332 62/333/333
f 60/334/334 59/335/335 63/336/336
f 60/337/337 63/338/338 64/339/339
f 60/340/340 64/341/341 71/342/342
f 74/343/343 75/344/344 60/345/345
f 74/346/346 60/347/347 71/348/348
f 73/349/349 72/350/350 76/351/351
f 74/352/352 73/353/353 76/354/354
f 75/355/355 74/356/356 76/357/357
f 60/358/358 75/359/359 69/360/360
f 72/361/361 69/362/362 76/363/363
f 69/364/364 75/365/365 76/366/366
f 69/367/367 72/368/368 57/369/369
f 57/370/370 60/371/371 69/372/372
